# Blender 3.5.0
# www.blender.org
mtllib key_small.mtl
o key
v -1.056023 13.410120 -0.000001
v -1.056024 14.830048 -2.459374
v -1.056024 16.249964 -0.000001
v -1.056024 17.669884 -2.459374
v -1.056023 19.089796 -0.000001
v 5.062079 19.089800 -0.000001
v 5.062079 17.669878 2.459373
v 6.303098 17.239906 1.714638
v 6.303098 15.260012 1.714638
v 8.578303 14.830040 2.459373
v 8.578303 13.410120 -0.000001
v 10.355688 14.521596 -0.000001
v 10.355691 15.385783 -1.496807
v 10.976196 16.249958 -0.000001
v 10.355688 17.114140 -1.496806
v 10.355691 17.978325 -0.000001
v 8.578303 17.669884 -2.459374
v 8.578300 19.089800 -0.000001
v 6.303098 17.239908 -1.714640
v 6.303097 18.229855 -0.000001
v 5.062079 17.669884 -2.459374
v 1.163764 9.597930 -2.459374
v 1.163764 11.017843 -0.000001
v 1.163763 8.178008 -0.000001
v 1.163764 9.597930 2.459373
v 1.163764 6.758094 2.459373
v 7.281867 6.758088 2.459373
v 7.281867 5.338167 -0.000000
v 8.522886 6.198112 -0.000000
v 8.522885 7.188058 -1.714640
v 10.798089 6.758088 -2.459373
v 10.798089 9.597931 -2.459374
v 12.575476 9.042190 -1.496806
v 12.575479 9.906372 -0.000001
v 13.195984 8.178005 -0.000001
v 12.575476 9.042190 1.496804
v 12.575479 7.313830 1.496804
v 10.798089 9.597925 2.459373
v 10.798089 6.758088 2.459373
v 8.522885 9.167954 1.714638
v 8.522885 7.188058 1.714638
v 7.281867 9.597925 2.459373
v -0.120763 -0.000001 0.000001
v -1.657897 -0.000001 -2.662396
v -3.195035 -0.000001 0.000000
v -4.836058 1.840669 -0.000000
v -2.478413 1.840665 4.083567
v -1.540684 35.743061 2.459370
v 1.299156 35.743061 2.459371
v -0.120764 35.743057 -0.000004
v 2.719076 35.743061 -0.000004
v 1.299157 35.743057 -2.459379
v 4.594532 1.840665 -0.000000
v 2.236885 1.840665 -4.083565
v 2.953507 -0.000001 0.000000
v 1.416373 -0.000001 -2.662397
v 6.348872 46.127724 -0.000003
v 8.872587 46.127724 5.336473
v 5.136344 42.395954 -0.000003
v 7.178075 40.912552 4.932583
v 2.741782 37.689400 4.536538
v 4.140522 33.384510 2.803733
v -4.140522 33.384510 2.803733
v -4.140522 33.384510 -2.803739
v -10.840029 38.251984 -3.048508
v -7.178075 40.912552 -4.932589
v -8.872587 46.127728 -5.336479
v -6.348872 46.127724 -0.000003
v -7.178073 51.342903 -5.638267
v -5.136344 49.859489 -0.000004
v -1.961907 52.165855 -0.000004
v -2.741782 54.566055 -5.789492
v -10.840029 54.003468 -3.484645
v -13.399012 46.127728 -3.298130
v -10.840029 38.251984 3.048502
v -2.741782 37.689396 4.536538
v 1.961907 40.089592 -0.000003
v 5.136345 49.859501 -0.000004
v 6.348872 46.127724 -0.000003
v 7.178073 51.342903 -5.638267
v 8.872587 46.127724 -5.336479
v 10.840027 54.003468 -3.484645
v 13.399012 46.127724 -3.298130
v 10.840027 54.003468 3.484638
v 13.399012 46.127724 3.298122
v 7.178073 51.342903 5.638259
v 5.136345 49.859501 -0.000004
v 1.961907 52.165855 -0.000004
v -1.961907 52.165855 -0.000004
v 2.741782 54.566055 5.789484
v -2.741782 54.566055 5.789484
v 4.140522 58.870945 3.578095
v -4.140523 58.870945 3.578095
v 4.140522 58.870945 -3.578102
v -4.140523 58.870945 -3.578100
v 2.741781 54.566055 -5.789491
v 1.961907 52.165855 -0.000004
v 1.961907 52.165855 -0.000004
v 2.741781 54.566055 -5.789491
v 4.140522 58.870945 -3.578102
v 4.140522 58.870945 3.578095
v 2.741782 54.566055 5.789484
v 1.961907 52.165855 -0.000004
v 10.840029 38.251987 3.048503
v 4.140522 33.384510 -2.803739
v -2.741781 37.689396 -4.536543
v -5.136344 42.395954 -0.000003
v -10.840029 54.003468 3.484639
v -13.399012 46.127728 3.298122
v -7.178073 40.912552 4.932583
v -1.961907 40.089592 -0.000003
v 7.281867 11.017845 -0.000001
v 8.522884 10.157903 -0.000001
v 10.798087 11.017845 -0.000001
v 8.522885 9.167956 -1.714640
v 7.281867 6.758088 -2.459373
v 1.163764 5.338167 -0.000000
v 5.062079 14.830040 -2.459374
v 6.303098 15.260012 -1.714640
v 8.578303 14.830040 -2.459374
v 5.062080 13.410120 -0.000001
v 6.303099 14.270063 -0.000001
v -7.178073 51.342903 5.638259
v -8.872586 46.127728 5.336473
v -5.136344 42.395954 -0.000003
v 10.840029 38.251987 -3.048508
v 2.741781 37.689400 -4.536543
v -1.961907 40.089592 -0.000003
v 8.578303 17.669878 2.459373
v 10.355691 15.385783 1.496804
v 7.281867 9.597931 -2.459374
v 1.163764 6.758094 -2.459373
v 10.798089 5.338167 -0.000000
v 12.575479 7.313830 -1.496807
v 5.062079 14.830040 2.459373
v -1.056024 17.669884 2.459373
v -1.657901 -0.000001 2.662399
v 2.236883 1.840661 4.083567
v -2.960605 35.743057 -0.000004
v -2.478409 1.840669 -4.083567
v 7.178073 40.912552 -4.932588
v 1.961907 40.089592 -0.000003
v 10.355688 17.114140 1.496804
v -1.540683 35.743057 -2.459380
v 1.416373 -0.000001 2.662400
v 12.575476 6.449643 -0.000000
v -1.056024 14.830048 2.459373
v -4.553457 26.040638 -0.000002
v -2.208600 26.040638 4.061408
v 0.136255 26.040649 -0.000002
v 2.481111 26.040638 4.061410
v 4.825967 26.040649 -0.000002
v -5.136344 49.859489 -0.000004
v -6.348872 46.127724 -0.000003
v 2.481108 26.040644 -4.061412
v -2.208600 26.040649 -4.061414
v -4.553457 26.040638 -0.000002
v -5.104520 30.679434 -0.000002
v -2.475888 30.679434 4.552923
v 0.152744 30.679443 -0.000002
v 2.781377 30.679434 4.552926
v 5.410008 30.679443 -0.000002
v 2.781373 30.679438 -4.552927
v -2.475888 30.679443 -4.552929
v -5.104520 30.679434 -0.000002
v -2.208600 28.644812 -4.061414
v 2.481109 28.644817 -4.061412
v 0.136256 28.644812 -0.000002
v 4.825967 28.644812 -0.000002
v 2.481111 28.644812 4.061409
v 5.136344 42.395954 -0.000003
v 2.781377 33.320038 4.552926
v 0.152745 33.320038 -0.000003
v 5.410010 33.320038 -0.000003
v 2.781374 33.320042 -4.552927
v -5.104523 33.320038 -0.000003
v -2.475888 33.320038 4.552923
v -4.553459 28.644812 -0.000002
v -2.208600 28.644812 4.061408
v -4.553457 26.040638 -0.000002
v -2.208600 26.040649 -4.061414
v -4.553459 28.644812 -0.000002
v -2.208600 28.644812 -4.061414
v -4.553459 28.644812 -0.000002
v -2.208600 28.644812 4.061408
v -4.553457 26.040638 -0.000002
v -2.208600 26.040638 4.061408
v 2.481111 28.644812 4.061409
v 2.481111 26.040638 4.061410
v 4.825967 28.644812 -0.000002
v 4.825967 26.040649 -0.000002
v 2.481109 28.644817 -4.061412
v 2.481108 26.040644 -4.061412
v -5.104520 30.679434 -0.000002
v -2.475888 30.679443 -4.552929
v -5.104523 33.320038 -0.000003
v -2.475888 33.320038 -4.552929
v 2.781373 30.679438 -4.552927
v 2.781374 33.320042 -4.552927
v 5.410008 30.679443 -0.000002
v 5.410010 33.320038 -0.000003
v 2.781377 30.679434 4.552926
v 2.781377 33.320038 4.552926
v -5.104523 33.320038 -0.000003
v -2.475888 33.320038 4.552923
v -5.104520 30.679434 -0.000002
v -2.475888 30.679434 4.552923
v -5.104523 33.320038 -0.000003
v -2.475888 33.320038 -4.552929
v -4.553459 28.644812 -0.000002
vn -1.0000 -0.0000 -0.0000
vn -0.7560 -0.3273 -0.5669
vn -0.7560 -0.6546 -0.0000
vn -0.7560 0.3273 -0.5669
vn -0.7560 0.6546 -0.0000
vn 0.3046 0.9525 -0.0000
vn 0.3046 0.4762 0.8249
vn 0.1288 0.4958 0.8588
vn 0.1288 -0.4958 0.8588
vn 0.1036 -0.4973 0.8614
vn 0.1036 -0.9946 -0.0000
vn 0.7882 -0.6154 -0.0000
vn 0.7882 -0.3077 -0.5330
vn 1.0000 -0.0000 -0.0000
vn 0.7882 0.3077 -0.5330
vn 0.7882 0.6154 -0.0000
vn 0.1036 0.4973 -0.8614
vn 0.1036 0.9946 -0.0000
vn 0.1288 0.4958 -0.8588
vn 0.1288 0.9917 -0.0000
vn 0.3046 0.4762 -0.8249
vn -0.7560 0.3273 0.5669
vn -0.7560 -0.3273 0.5669
vn 0.3046 -0.4762 0.8249
vn 0.3046 -0.9525 -0.0000
vn 0.1288 -0.9917 -0.0000
vn 0.1288 -0.4958 -0.8588
vn 0.1037 -0.4973 -0.8614
vn 0.7882 0.3077 0.5330
vn 0.7882 -0.3077 0.5330
vn 0.1037 0.4973 0.8614
vn -0.3915 -0.9202 -0.0000
vn -0.1957 -0.9202 -0.3390
vn -0.0000 -1.0000 -0.0000
vn -0.9399 -0.3414 -0.0000
vn -0.4699 -0.3414 0.8140
vn -0.3183 0.7711 0.5514
vn 0.3183 0.7711 0.5514
vn -0.0000 1.0000 -0.0000
vn 0.6367 0.7711 -0.0000
vn 0.3183 0.7711 -0.5514
vn 0.9399 -0.3414 -0.0000
vn 0.4699 -0.3414 -0.8140
vn 0.3915 -0.9202 -0.0000
vn 0.1957 -0.9202 -0.3390
vn -0.8225 0.5688 -0.0000
vn -0.3323 -0.0347 0.9426
vn -0.9998 -0.0188 -0.0000
vn -0.2904 0.1622 0.9430
vn -0.1185 0.3015 0.9461
vn 0.2423 -0.7823 0.5738
vn -0.2423 -0.7823 0.5738
vn -0.2423 -0.7823 -0.5738
vn -0.6533 -0.5027 -0.5661
vn 0.2904 0.1623 -0.9430
vn 0.3323 -0.0347 -0.9426
vn 0.9998 -0.0188 -0.0000
vn 0.2558 -0.2133 -0.9429
vn 0.8023 -0.5969 -0.0000
vn 0.3055 -0.9522 -0.0000
vn 0.0955 -0.3179 -0.9433
vn -0.6848 0.4821 -0.5465
vn -0.8316 -0.0197 -0.5551
vn -0.6533 -0.5027 0.5661
vn 0.1185 0.3015 0.9461
vn -0.3205 0.9472 -0.0000
vn -0.2558 -0.2133 -0.9429
vn -0.8023 -0.5969 -0.0000
vn -0.3323 -0.0347 -0.9426
vn 0.6848 0.4821 -0.5465
vn 0.8316 -0.0197 -0.5551
vn 0.6848 0.4821 0.5465
vn 0.8316 -0.0197 0.5550
vn -0.2558 -0.2133 0.9429
vn -0.8023 -0.5970 -0.0000
vn -0.0955 -0.3179 0.9433
vn -0.3055 -0.9522 -0.0000
vn 0.0955 -0.3179 0.9433
vn 0.2636 0.7980 0.5420
vn -0.2635 0.7980 0.5420
vn 0.2636 0.7980 -0.5420
vn -0.2636 0.7979 -0.5420
vn -0.0955 -0.3179 -0.9433
vn 0.6533 -0.5027 0.5661
vn 0.2423 -0.7823 -0.5738
vn 0.1185 0.3015 -0.9461
vn 0.8225 0.5688 -0.0000
vn -0.6848 0.4821 0.5465
vn -0.8316 -0.0197 0.5550
vn 0.2904 0.1623 0.9430
vn 0.3206 0.9472 -0.0000
vn 0.3046 -0.4762 -0.8249
vn 0.1036 -0.4973 -0.8614
vn 0.2558 -0.2133 0.9429
vn 0.3322 -0.0347 0.9426
vn 0.8224 0.5688 -0.0000
vn 0.6533 -0.5027 -0.5661
vn -0.1185 0.3015 -0.9461
vn 0.3205 0.9472 -0.0000
vn 0.1036 0.4973 0.8614
vn -0.1957 -0.9202 0.3390
vn 0.4699 -0.3414 0.8140
vn -0.6367 0.7711 -0.0000
vn -0.4699 -0.3414 -0.8140
vn -0.2904 0.1622 -0.9430
vn -0.3206 0.9472 -0.0000
vn -0.3183 0.7711 -0.5514
vn 0.1957 -0.9202 0.3390
vn -0.5000 -0.0000 -0.8660
vn -0.5000 -0.0000 0.8660
vn 0.5000 -0.0000 0.8660
vn 0.5000 -0.0000 -0.8660
vt 0.125000 -0.003906
vt 0.125000 0.250000
vt 0.125000 0.500000
vt 0.125000 0.753906
vt 0.125000 1.003906
vt 0.539062 1.003906
vt 0.539062 0.753906
vt 0.644531 0.726562
vt 0.644531 0.277344
vt 0.796875 0.250000
vt 0.796875 -0.003906
vt 0.859375 0.089844
vt 0.859375 0.296875
vt 0.917969 0.500000
vt 0.859375 0.707031
vt 0.859375 0.914062
vt 0.796875 0.753906
vt 0.796875 1.003906
vt 0.644531 0.726562
vt 0.644531 0.953125
vt 0.539062 0.753906
vt 0.125000 0.753906
vt 0.125000 1.003906
vt 0.125000 0.500000
vt 0.125000 0.753906
vt 0.125000 0.250000
vt 0.539062 0.250000
vt 0.539062 -0.003906
vt 0.644531 0.050781
vt 0.644531 0.277344
vt 0.796875 0.250000
vt 0.796875 0.753906
vt 0.859375 0.707031
vt 0.859375 0.914062
vt 0.917969 0.500000
vt 0.859375 0.707031
vt 0.859375 0.296875
vt 0.796875 0.753906
vt 0.796875 0.250000
vt 0.644531 0.726562
vt 0.644531 0.277344
vt 0.539062 0.753906
vt 0.812500 0.570312
vt 0.812500 0.347656
vt 0.812500 0.277344
vt 0.781250 0.121094
vt 0.781250 0.460938
vt 0.183594 0.503906
vt 0.183594 0.777344
vt 0.183594 0.570312
vt 0.183594 0.843750
vt 0.183594 0.636719
vt 0.781250 1.019531
vt 0.781250 0.683594
vt 0.812500 0.867188
vt 0.812500 0.644531
vt 0.796875 2.000000
vt 0.796875 1.601562
vt 0.699219 2.000000
vt 0.699219 1.601562
vt 0.597656 1.601562
vt 0.597656 1.203125
vt 0.500000 1.203125
vt 0.500000 0.808594
vt 0.398438 0.808594
vt 0.398438 0.414062
vt 0.296875 0.414062
vt 0.296875 0.000000
vt 0.199219 0.414062
vt 0.199219 0.000000
vt 0.097656 0.000000
vt 0.097656 0.414062
vt 0.199219 0.808594
vt 0.296875 0.808594
vt 0.398438 1.203125
vt 0.500000 1.601562
vt 0.597656 2.000000
vt 0.898438 0.000000
vt 0.796875 0.000000
vt 0.898438 0.414062
vt 0.796875 0.414062
vt 0.898438 0.808594
vt 0.796875 0.808594
vt 0.898438 1.203125
vt 0.796875 1.203125
vt 0.898438 1.601562
vt 0.898438 2.000000
vt 0.000000 2.000000
vt 0.097656 2.000000
vt 0.000000 1.601562
vt 0.097656 1.601562
vt 0.000000 1.203125
vt 0.097656 1.203125
vt 0.000000 0.808594
vt 0.097656 0.808594
vt 0.000000 0.414062
vt 0.000000 0.000000
vt 1.000000 0.000000
vt 1.000000 0.414062
vt 1.000000 0.808594
vt 1.000000 1.203125
vt 1.000000 1.601562
vt 1.000000 2.000000
vt 0.699219 1.203125
vt 0.597656 0.808594
vt 0.500000 0.414062
vt 0.398438 0.000000
vt 0.199219 1.203125
vt 0.296875 1.203125
vt 0.398438 1.601562
vt 0.500000 2.000000
vt 0.539062 1.003906
vt 0.644531 0.953125
vt 0.796875 1.003906
vt 0.644531 0.726562
vt 0.539062 0.250000
vt 0.125000 -0.003906
vt 0.539062 0.250000
vt 0.644531 0.277344
vt 0.796875 0.250000
vt 0.539062 -0.003906
vt 0.644531 0.050781
vt 0.199219 1.601562
vt 0.296875 1.601562
vt 0.398438 2.000000
vt 0.699219 0.808594
vt 0.597656 0.414062
vt 0.500000 0.000000
vt 0.796875 0.753906
vt 0.859375 0.296875
vt 0.539062 0.753906
vt 0.125000 0.250000
vt 0.796875 -0.003906
vt 0.859375 0.296875
vt 0.539062 0.250000
vt 0.125000 0.753906
vt 0.812500 0.500000
vt 0.781250 0.914062
vt 0.183594 0.300781
vt 0.781250 0.230469
vt 0.699219 0.414062
vt 0.597656 0.000000
vt 0.859375 0.707031
vt 0.183594 0.367188
vt 0.812500 0.796875
vt 0.859375 0.089844
vt 0.125000 0.250000
vt 0.562500 -0.734375
vt 0.562500 -0.402344
vt -0.027344 0.246094
vt 0.562500 -0.066406
vt 0.562500 0.265625
vt 0.199219 2.000000
vt 0.296875 2.000000
vt 0.562500 0.597656
vt 0.562500 0.933594
vt 0.562500 1.261719
vt 0.562500 -0.734375
vt 0.562500 -0.402344
vt -0.027344 0.246094
vt 0.562500 -0.066406
vt 0.562500 0.265625
vt 0.562500 0.597656
vt 0.562500 0.933594
vt 0.562500 1.261719
vt 0.433594 0.933594
vt 0.433594 0.597656
vt -0.156250 0.246094
vt 0.433594 0.265625
vt 0.433594 -0.066406
vt 0.699219 0.000000
vt 0.433594 -0.066406
vt -0.156250 0.246094
vt 0.433594 0.265625
vt 0.433594 0.597656
vt 0.433594 -0.734375
vt 0.433594 -0.402344
vt 0.433594 -0.734375
vt 0.433594 -0.402344
vt 0.562500 1.261719
vt 0.562500 0.933594
vt 0.433594 1.261719
vt 0.433594 0.933594
vt 0.433594 -0.734375
vt 0.433594 -0.402344
vt 0.562500 -0.734375
vt 0.562500 -0.402344
vt 0.433594 -0.066406
vt 0.562500 -0.066406
vt 0.433594 0.265625
vt 0.562500 0.265625
vt 0.433594 0.597656
vt 0.562500 0.597656
vt 0.562500 1.261719
vt 0.562500 0.933594
vt 0.433594 1.261719
vt 0.433594 0.933594
vt 0.562500 0.597656
vt 0.433594 0.597656
vt 0.562500 0.265625
vt 0.433594 0.265625
vt 0.562500 -0.066406
vt 0.433594 -0.066406
vt 0.433594 -0.734375
vt 0.433594 -0.402344
vt 0.562500 -0.734375
vt 0.562500 -0.402344
vt 0.433594 1.261719
vt 0.433594 0.933594
vt 0.433594 1.261719
s 1
usemtl SP_VkeyL
f 3/3/1 2/2/2 1/1/3
f 3/3/1 4/4/4 2/2/2
f 5/5/5 4/4/4 3/3/1
f 5/5/5 6/6/6 4/4/4
f 7/7/7 6/6/6 5/5/5
f 7/7/7 8/8/8 6/6/6
f 9/9/9 8/8/8 7/7/7
f 9/9/9 10/10/10 8/8/8
f 11/11/11 10/10/10 9/9/9
f 11/11/11 12/12/12 10/10/10
f 13/13/13 12/12/12 11/11/11
f 13/13/13 14/14/14 12/12/12
f 15/15/15 14/14/14 13/13/13
f 15/15/15 16/16/16 14/14/14
f 17/17/17 16/16/16 15/15/15
f 17/17/17 18/18/18 16/16/16
f 19/19/19 18/18/18 17/17/17
f 19/19/19 20/20/20 18/18/18
f 21/21/21 20/20/20 19/19/19
f 21/21/21 6/6/6 20/20/20
f 4/4/4 6/6/6 21/21/21
f 24/24/1 23/23/5 22/22/4
f 24/24/1 25/25/22 23/23/5
f 26/26/23 25/25/22 24/24/1
f 26/26/23 27/27/24 25/25/22
f 28/28/25 27/27/24 26/26/23
f 28/28/25 29/29/26 27/27/24
f 30/30/27 29/29/26 28/28/25
f 30/30/27 31/31/28 29/29/26
f 32/32/17 31/31/28 30/30/27
f 32/32/17 33/33/15 31/31/28
f 34/34/16 33/33/15 32/32/17
f 34/34/16 35/35/14 33/33/15
f 36/36/29 35/35/14 34/34/16
f 36/36/29 37/37/30 35/35/14
f 38/38/31 37/37/30 36/36/29
f 38/38/31 39/39/10 37/37/30
f 40/40/8 39/39/10 38/38/31
f 40/40/8 41/41/9 39/39/10
f 42/42/7 41/41/9 40/40/8
f 42/42/7 27/27/24 41/41/9
f 25/25/22 27/27/24 42/42/7
f 45/45/32 44/44/33 43/43/34
f 45/45/32 46/46/35 44/44/33
f 47/47/36 46/46/35 45/45/32
f 47/47/36 48/48/37 46/46/35
f 49/49/38 48/48/37 47/47/36
f 49/49/38 50/50/39 48/48/37
f 51/51/40 50/50/39 49/49/38
f 51/51/40 52/52/41 50/50/39
f 53/53/42 52/52/41 51/51/40
f 53/53/42 54/54/43 52/52/41
f 55/55/44 54/54/43 53/53/42
f 55/55/44 56/56/45 54/54/43
f 43/43/34 56/56/45 55/55/44
f 43/43/34 44/44/33 56/56/45
f 59/59/46 58/58/47 57/57/48
f 59/59/46 60/60/49 58/58/47
f 61/61/50 60/60/49 59/59/46
f 61/61/50 62/62/51 60/60/49
f 63/63/52 62/62/51 61/61/50
f 63/63/52 64/64/53 62/62/51
f 65/65/54 64/64/53 63/63/52
f 65/65/54 66/66/55 64/64/53
f 67/67/56 66/66/55 65/65/54
f 67/67/56 68/68/57 66/66/55
f 69/69/58 68/68/57 67/67/56
f 69/69/58 70/70/59 68/68/57
f 71/71/60 70/70/59 69/69/58
f 69/69/58 72/72/61 71/71/60
f 69/69/58 73/73/62 72/72/61
f 67/67/56 73/73/62 69/69/58
f 67/67/56 74/74/63 73/73/62
f 65/65/54 74/74/63 67/67/56
f 65/65/54 75/75/64 74/74/63
f 63/63/52 75/75/64 65/65/54
f 63/63/52 76/76/65 75/75/64
f 61/61/50 76/76/65 63/63/52
f 61/61/50 77/77/66 76/76/65
f 59/59/46 77/77/66 61/61/50
f 80/80/67 79/79/48 78/78/68
f 80/80/67 81/81/69 79/79/48
f 82/82/70 81/81/69 80/80/67
f 82/82/70 83/83/71 81/81/69
f 84/84/72 83/83/71 82/82/70
f 84/84/72 85/85/73 83/83/71
f 86/86/74 85/85/73 84/84/72
f 86/86/74 58/58/47 85/85/73
f 87/87/75 58/58/47 86/86/74
f 87/87/75 57/57/48 58/58/47
f 90/90/76 89/89/60 88/88/77
f 90/90/76 91/91/78 89/89/60
f 92/92/79 91/91/78 90/90/76
f 92/92/79 93/93/80 91/91/78
f 94/94/81 93/93/80 92/92/79
f 94/94/81 95/95/82 93/93/80
f 96/96/83 95/95/82 94/94/81
f 96/96/83 72/72/61 95/95/82
f 97/97/77 72/72/61 96/96/83
f 97/97/77 71/71/60 72/72/61
f 99/99/83 78/78/68 98/98/77
f 99/99/83 80/80/67 78/78/68
f 100/100/81 80/80/67 99/99/83
f 100/100/81 82/82/70 80/80/67
f 101/101/79 82/82/70 100/100/81
f 101/101/79 84/84/72 82/82/70
f 102/102/76 84/84/72 101/101/79
f 102/102/76 86/86/74 84/84/72
f 103/103/77 86/86/74 102/102/76
f 103/103/77 87/87/75 86/86/74
f 60/60/49 85/85/73 58/58/47
f 60/60/49 104/104/84 85/85/73
f 62/62/51 104/104/84 60/60/49
f 62/62/51 105/105/85 104/104/84
f 64/64/53 105/105/85 62/62/51
f 64/64/53 106/106/86 105/105/85
f 66/66/55 106/106/86 64/64/53
f 66/66/55 107/107/87 106/106/86
f 68/68/57 107/107/87 66/66/55
f 73/73/62 95/95/82 72/72/61
f 73/73/62 108/108/88 95/95/82
f 74/74/63 108/108/88 73/73/62
f 74/74/63 109/109/89 108/108/88
f 75/75/64 109/109/89 74/74/63
f 75/75/64 110/110/90 109/109/89
f 76/76/65 110/110/90 75/75/64
f 76/76/65 111/111/91 110/110/90
f 77/77/66 111/111/91 76/76/65
f 42/42/7 23/23/5 25/25/22
f 42/42/7 112/112/6 23/23/5
f 40/40/8 112/112/6 42/42/7
f 40/40/8 113/113/20 112/112/6
f 38/38/31 113/113/20 40/40/8
f 38/38/31 114/114/18 113/113/20
f 36/36/29 114/114/18 38/38/31
f 36/36/29 34/34/16 114/114/18
f 32/32/17 114/114/18 34/34/16
f 32/32/17 115/115/19 114/114/18
f 30/30/27 115/115/19 32/32/17
f 30/30/27 116/116/92 115/115/19
f 28/28/25 116/116/92 30/30/27
f 28/28/25 117/117/3 116/116/92
f 26/26/23 117/117/3 28/28/25
f 26/26/23 24/24/1 117/117/3
f 21/21/21 2/2/2 4/4/4
f 21/21/21 118/118/92 2/2/2
f 19/19/19 118/118/92 21/21/21
f 19/19/19 119/119/27 118/118/92
f 17/17/17 119/119/27 19/19/19
f 17/17/17 120/120/93 119/119/27
f 15/15/15 120/120/93 17/17/17
f 15/15/15 13/13/13 120/120/93
f 118/118/92 1/1/3 2/2/2
f 118/118/92 121/121/25 1/1/3
f 119/119/27 121/121/25 118/118/92
f 119/119/27 122/122/26 121/121/25
f 120/120/93 122/122/26 119/119/27
f 120/120/93 11/11/11 122/122/26
f 13/13/13 11/11/11 120/120/93
f 108/108/88 93/93/80 95/95/82
f 108/108/88 123/123/94 93/93/80
f 109/109/89 123/123/94 108/108/88
f 109/109/89 124/124/95 123/123/94
f 110/110/90 124/124/95 109/109/89
f 110/110/90 125/125/96 124/124/95
f 111/111/91 125/125/96 110/110/90
f 104/104/84 83/83/71 85/85/73
f 104/104/84 126/126/97 83/83/71
f 105/105/85 126/126/97 104/104/84
f 105/105/85 127/127/98 126/126/97
f 106/106/86 127/127/98 105/105/85
f 106/106/86 128/128/99 127/127/98
f 107/107/87 128/128/99 106/106/86
f 8/8/8 20/20/20 6/6/6
f 8/8/8 129/129/100 20/20/20
f 10/10/10 129/129/100 8/8/8
f 10/10/10 130/130/30 129/129/100
f 12/12/12 130/130/30 10/10/10
f 12/12/12 14/14/14 130/130/30
f 115/115/19 113/113/20 114/114/18
f 115/115/19 131/131/21 113/113/20
f 116/116/92 131/131/21 115/115/19
f 116/116/92 132/132/2 131/131/21
f 117/117/3 132/132/2 116/116/92
f 117/117/3 24/24/1 132/132/2
f 29/29/26 41/41/9 27/27/24
f 29/29/26 133/133/11 41/41/9
f 31/31/28 133/133/11 29/29/26
f 31/31/28 134/134/13 133/133/11
f 33/33/15 134/134/13 31/31/28
f 33/33/15 35/35/14 134/134/13
f 9/9/9 122/122/26 11/11/11
f 9/9/9 135/135/24 122/122/26
f 7/7/7 135/135/24 9/9/9
f 7/7/7 136/136/22 135/135/24
f 5/5/5 136/136/22 7/7/7
f 5/5/5 3/3/1 136/136/22
f 137/137/101 45/45/32 43/43/34
f 137/137/101 47/47/36 45/45/32
f 138/138/102 47/47/36 137/137/101
f 138/138/102 49/49/38 47/47/36
f 51/51/40 49/49/38 138/138/102
f 139/139/103 48/48/37 50/50/39
f 139/139/103 46/46/35 48/48/37
f 140/140/104 46/46/35 139/139/103
f 140/140/104 44/44/33 46/46/35
f 56/56/45 44/44/33 140/140/104
f 126/126/97 81/81/69 83/83/71
f 126/126/97 141/141/105 81/81/69
f 127/127/98 141/141/105 126/126/97
f 127/127/98 142/142/106 141/141/105
f 128/128/99 142/142/106 127/127/98
f 22/22/4 132/132/2 24/24/1
f 22/22/4 131/131/21 132/132/2
f 112/112/6 131/131/21 22/22/4
f 112/112/6 113/113/20 131/131/21
f 129/129/100 18/18/18 20/20/20
f 129/129/100 143/143/29 18/18/18
f 130/130/30 143/143/29 129/129/100
f 130/130/30 14/14/14 143/143/29
f 140/140/104 54/54/43 56/56/45
f 140/140/104 144/144/107 54/54/43
f 139/139/103 144/144/107 140/140/104
f 139/139/103 50/50/39 144/144/107
f 138/138/102 53/53/42 51/51/40
f 138/138/102 145/145/108 53/53/42
f 137/137/101 145/145/108 138/138/102
f 137/137/101 43/43/34 145/145/108
f 133/133/11 39/39/10 41/41/9
f 133/133/11 146/146/12 39/39/10
f 134/134/13 146/146/12 133/133/11
f 134/134/13 35/35/14 146/146/12
f 135/135/24 121/121/25 122/122/26
f 135/135/24 147/147/23 121/121/25
f 136/136/22 147/147/23 135/135/24
f 136/136/22 3/3/1 147/147/23
s 0
f 150/150/34 149/149/34 148/148/34
f 150/150/34 151/151/34 149/149/34
f 152/152/34 151/151/34 150/150/34
s 1
f 124/124/95 153/153/59 123/123/94
f 124/124/95 154/154/57 153/153/59
f 125/125/96 154/154/57 124/124/95
f 91/91/78 153/153/59 89/89/60
f 91/91/78 123/123/94 153/153/59
f 93/93/80 123/123/94 91/91/78
s 0
f 150/150/34 155/155/34 152/152/34
f 150/150/34 156/156/34 155/155/34
f 157/157/34 156/156/34 150/150/34
f 160/160/34 159/159/34 158/158/34
f 160/160/34 161/161/34 159/159/34
f 162/162/34 161/161/34 160/160/34
f 160/160/34 163/163/34 162/162/34
f 160/160/34 164/164/34 163/163/34
f 165/165/34 164/164/34 160/160/34
f 168/168/39 167/167/39 166/166/39
f 168/168/39 169/169/39 167/167/39
f 170/170/39 169/169/39 168/168/39
s 1
f 141/141/105 79/79/48 81/81/69
f 141/141/105 171/171/46 79/79/48
f 142/142/106 171/171/46 141/141/105
f 16/16/16 143/143/29 14/14/14
f 16/16/16 18/18/18 143/143/29
f 52/52/41 144/144/107 50/50/39
f 52/52/41 54/54/43 144/144/107
f 37/37/30 146/146/12 35/35/14
f 37/37/30 39/39/10 146/146/12
f 1/1/3 147/147/23 3/3/1
f 1/1/3 121/121/25 147/147/23
s 0
f 174/174/39 173/173/39 172/172/39
f 174/174/39 175/175/39 173/173/39
f 177/177/39 173/173/39 176/176/39
f 177/177/39 172/172/39 173/173/39
f 179/179/39 168/168/39 178/178/39
f 179/179/39 170/170/39 168/168/39
s 1
f 182/182/1 181/181/109 180/180/1
f 182/182/1 183/183/109 181/181/109
f 186/186/1 185/185/110 184/184/1
f 186/186/1 187/187/110 185/185/110
f 187/187/110 188/188/111 185/185/110
f 187/187/110 189/189/111 188/188/111
f 189/189/111 190/190/14 188/188/111
f 189/189/111 191/191/14 190/190/14
f 191/191/14 192/192/112 190/190/14
f 191/191/14 193/193/112 192/192/112
f 183/183/109 193/193/112 181/181/109
f 183/183/109 192/192/112 193/193/112
f 196/196/1 195/195/109 194/194/1
f 196/196/1 197/197/109 195/195/109
f 197/197/109 198/198/112 195/195/109
f 197/197/109 199/199/112 198/198/112
f 199/199/112 200/200/14 198/198/112
f 199/199/112 201/201/14 200/200/14
f 201/201/14 202/202/111 200/200/14
f 201/201/14 203/203/111 202/202/111
f 206/206/1 205/205/110 204/204/1
f 206/206/1 207/207/110 205/205/110
f 203/203/111 207/207/110 202/202/111
f 203/203/111 205/205/110 207/207/110
f 55/55/44 145/145/108 43/43/34
f 55/55/44 53/53/42 145/145/108
s 0
f 209/209/39 208/208/39 173/173/39
f 166/166/39 210/210/39 168/168/39
f 175/175/39 209/209/39 173/173/39
s 1
f 112/112/6 22/22/4 23/23/5
